HIERARCHY
ROOT Hips
{
 OFFSET 0.000000 0.000000 0.000000
 CHANNELS 6 Xposition Yposition Zposition Yrotation Xrotation Zrotation
 JOINT Chest
 {
  OFFSET 0.000000 9.585900 0.002600
  CHANNELS 3 Yrotation Xrotation Zrotation
  JOINT Chest2
  {
   OFFSET 0.000000 9.601200 -0.005300
   CHANNELS 3 Yrotation Xrotation Zrotation
   JOINT Chest3
   {
    OFFSET 0.000000 9.561800 0.000000
    CHANNELS 3 Yrotation Xrotation Zrotation
    JOINT Chest4
    {
     OFFSET 0.000000 9.552100 0.000000
     CHANNELS 3 Yrotation Xrotation Zrotation
     JOINT Neck
     {
      OFFSET 0.000000 14.453000 0.000000
      CHANNELS 3 Yrotation Xrotation Zrotation
      JOINT Head
      {
       OFFSET 0.000000 8.936500 -0.011300
       CHANNELS 3 Yrotation Xrotation Zrotation
       End Site
       {
        OFFSET 0.000000 17.073600 -0.006000
       }
      }
     }
     JOINT RightCollar
     {
      OFFSET -2.921100 9.558500 0.000000
      CHANNELS 3 Yrotation Xrotation Zrotation
      JOINT RightShoulder
      {
       OFFSET -13.519700 0.000000 0.000000
       CHANNELS 3 Yrotation Xrotation Zrotation
       JOINT RightElbow
       {
        OFFSET 0.000000 -29.696600 0.000000
        CHANNELS 3 Yrotation Xrotation Zrotation
        JOINT RightWrist
        {
         OFFSET 0.000000 -24.004700 0.000000
         CHANNELS 3 Yrotation Xrotation Zrotation
         End Site
         {
          OFFSET 0.000000 -17.728500 0.000000
         }
        }
       }
      }
     }
     JOINT LeftCollar
     {
      OFFSET 2.921100 9.558500 0.000000
      CHANNELS 3 Yrotation Xrotation Zrotation
      JOINT LeftShoulder
      {
       OFFSET 13.519700 0.000000 0.000000
       CHANNELS 3 Yrotation Xrotation Zrotation
       JOINT LeftElbow
       {
        OFFSET 0.000000 -29.696600 0.000000
        CHANNELS 3 Yrotation Xrotation Zrotation
        JOINT LeftWrist
        {
         OFFSET 0.000000 -24.004700 0.000000
         CHANNELS 3 Yrotation Xrotation Zrotation
         End Site
         {
          OFFSET 0.000000 -17.728500 0.000000
         }
        }
       }
      }
     }
    }
   }
  }
 }
 JOINT RightHip
 {
  OFFSET -7.771700 -0.012900 -0.001300
  CHANNELS 3 Yrotation Xrotation Zrotation
  JOINT RightKnee
  {
   OFFSET 0.000000 -40.869800 0.001200
   CHANNELS 3 Yrotation Xrotation Zrotation
   JOINT RightAnkle
   {
    OFFSET 0.000000 -39.717900 0.002100
    CHANNELS 3 Yrotation Xrotation Zrotation
    JOINT RightToe
    {
     OFFSET 0.000000 -4.965400 11.033500
     CHANNELS 3 Yrotation Xrotation Zrotation
     End Site
     {
      OFFSET 0.000000 -1.423100 5.872300
     }
    }
   }
  }
 }
 JOINT LeftHip
 {
  OFFSET 7.771700 -0.012900 -0.001300
  CHANNELS 3 Yrotation Xrotation Zrotation
  JOINT LeftKnee
  {
   OFFSET 0.000000 -40.869800 0.001200
   CHANNELS 3 Yrotation Xrotation Zrotation
   JOINT LeftAnkle
   {
    OFFSET 0.000000 -39.717900 0.002100
    CHANNELS 3 Yrotation Xrotation Zrotation
    JOINT LeftToe
    {
     OFFSET 0.000000 -4.965400 11.033500
     CHANNELS 3 Yrotation Xrotation Zrotation
     End Site
     {
      OFFSET 0.000000 -1.423100 5.872300
     }
    }
   }
  }
 }
}
MOTION
Frames: 9
Frame Time: 0.008333
-10.285805 58.372782 43.766513 -173.221348 -42.266501 -6.090951 -0.530882 27.455236 2.588041 -0.102262 5.004742 0.421477 -0.144849 7.889425 0.662290 -0.163429 22.678179 1.925965 -3.306033 14.690783 -0.247208 -6.104286 -8.456869 0.782673 4.093199 -1.130128 -0.497065 13.244380 -23.082808 -18.572785 155.470776 -54.163335 -143.046998 21.408405 -8.494709 -44.174163 -9.513594 -1.987843 -2.241445 5.386482 -18.073548 -1.727755 -145.607255 -38.502511 140.729779 -9.948384 -17.019176 33.135355 3.837670 -28.893882 -7.156388 -4.202994 67.723120 -3.542842 4.988485 13.126017 9.389400 -0.002681 -9.303166 -0.018708 -10.570431 -34.195552 -1.200422 27.649806 63.031107 23.429918 -8.957433 29.289235 2.021099 0.308349 -17.292634 -2.229630
-10.272682 58.353307 43.793569 -173.223817 -42.278141 -6.055026 -0.542330 27.487195 2.558998 -0.102691 5.009685 0.421905 -0.145328 7.896636 0.662735 -0.159835 22.684932 1.925198 -3.259059 14.647236 -0.257979 -5.844685 -8.551921 0.685984 4.087147 -1.139268 -0.497727 13.265447 -23.082237 -18.632764 155.655873 -54.210122 -143.120112 21.426308 -8.467641 -44.117131 -9.512821 -1.997593 -2.232776 5.412989 -18.064249 -1.687998 -145.657814 -38.504291 140.777275 -9.964994 -16.997292 33.112160 3.873840 -28.904664 -7.171987 -4.239175 67.731133 -3.592120 4.977487 13.139145 9.404190 -0.004745 -9.301236 -0.018353 -10.544994 -34.210414 -1.248001 27.487852 63.004414 23.288756 -8.916333 29.440738 2.131471 0.355386 -17.372595 -2.362914
-10.251511 58.334982 43.818468 -173.237693 -42.301189 -6.062918 -0.501674 27.542593 2.598492 -0.112342 4.998621 0.416633 -0.139968 7.919556 0.666992 -0.162954 22.678564 1.924837 -3.126829 14.601006 -0.281095 -5.671632 -8.636409 0.624400 4.080902 -1.142543 -0.495261 13.292324 -23.085666 -18.692544 155.844852 -54.255432 -143.199889 21.449469 -8.443191 -44.063427 -9.514210 -2.009556 -2.221083 5.440624 -18.051402 -1.651389 -145.709683 -38.504226 140.822832 -9.985223 -16.973338 33.092461 3.908618 -28.901248 -7.123138 -4.235464 67.728176 -3.597603 4.942656 13.162360 9.423234 -0.009839 -9.304348 -0.017122 -10.537852 -34.236797 -1.242471 27.455790 63.018869 23.276991 -8.881474 29.580684 2.298442 0.343624 -17.449017 -2.523742
-10.231229 58.316998 43.841615 -173.254703 -42.331916 -6.067808 -0.472037 27.579503 2.622512 -0.107188 5.013102 0.419304 -0.144896 7.912824 0.665238 -0.156362 22.702247 1.929735 -2.992129 14.557014 -0.304322 -5.498638 -8.719013 0.563423 4.071035 -1.168792 -0.497574 13.325668 -23.068049 -18.737645 156.025073 -54.300135 -143.276040 21.477861 -8.431098 -44.019907 -9.507328 -2.021646 -2.207939 5.456607 -18.035613 -1.616623 -145.665778 -38.501054 140.755140 -9.965434 -16.985190 33.139595 3.948227 -28.890753 -7.088647 -4.263482 67.727686 -3.614361 4.931500 13.186478 9.427572 -0.013402 -9.310256 -0.013596 -10.511289 -34.251015 -1.245091 27.414122 63.027164 23.267002 -8.872953 29.721166 2.469479 0.392871 -17.539579 -2.712574
-10.226027 58.293894 43.868294 -173.230156 -42.326469 -6.012681 -0.522687 27.582670 2.548331 -0.090004 5.047485 0.428996 -0.144662 7.928718 0.666672 -0.166341 22.681673 1.924929 -2.887014 14.515683 -0.321693 -5.296053 -8.799910 0.492904 4.057966 -1.177321 -0.488506 13.357330 -23.072131 -18.783973 156.209597 -54.341887 -143.339878 21.514285 -8.435368 -43.993635 -9.494366 -2.005833 -2.184724 5.463058 -18.043057 -1.595360 -145.699518 -38.495978 140.780718 -9.966834 -16.970283 33.131735 3.985379 -28.918854 -7.170865 -4.260819 67.753041 -3.611355 4.932108 13.190314 9.431849 -0.015261 -9.310620 -0.010774 -10.456989 -34.301579 -1.350536 27.280559 62.964711 23.179662 -8.926347 29.949644 2.575670 0.489172 -17.647479 -2.880026
-10.214433 58.270640 43.893736 -173.210611 -42.316935 -5.998788 -0.521411 27.604751 2.540716 -0.101682 5.035896 0.425203 -0.152032 7.922765 0.665577 -0.153532 22.701792 1.928572 -2.782751 14.476918 -0.337453 -5.095382 -8.875755 0.425336 4.046104 -1.185273 -0.475861 13.366869 -23.088174 -18.812153 156.414710 -54.380191 -143.393496 21.562666 -8.457258 -43.986294 -9.495921 -2.012127 -2.171166 5.476196 -18.027238 -1.563954 -145.719835 -38.508940 140.771284 -9.968826 -16.989269 33.173014 4.048237 -28.946667 -7.211018 -4.331232 67.769401 -3.647178 4.933257 13.202624 9.438275 -0.015155 -9.314407 -0.005327 -10.424621 -34.351569 -1.403597 27.226497 62.922861 23.166221 -8.965474 30.155872 2.706549 0.525271 -17.759089 -3.038427
-10.199877 58.246230 43.918832 -173.178851 -42.294146 -6.017472 -0.531204 27.598143 2.549306 -0.108851 5.031107 0.424064 -0.151025 7.926240 0.665938 -0.151538 22.704772 1.930352 -2.730780 14.458243 -0.345101 -4.834183 -8.952413 0.335069 4.044716 -1.184437 -0.467066 13.397916 -23.076199 -18.858718 156.638774 -54.408566 -143.496858 21.620954 -8.501584 -43.991755 -9.496919 -2.013877 -2.164803 5.494567 -18.000622 -1.535522 -145.750511 -38.522236 140.771553 -9.979039 -17.003340 33.204901 4.094053 -28.987124 -7.215181 -4.342626 67.783324 -3.640861 4.920224 13.224334 9.457481 -0.028804 -9.328564 0.004636 -10.409223 -34.437493 -1.435092 27.256080 62.914923 23.240966 -8.981107 30.352145 2.847466 0.520364 -17.885716 -3.179649
-10.185021 58.220074 43.944084 -173.132086 -42.253384 -6.054700 -0.557959 27.567807 2.561748 -0.109097 5.033367 0.424849 -0.142057 7.941409 0.669081 -0.157360 22.695846 1.931143 -2.588533 14.434900 -0.366580 -4.669497 -9.017864 0.283250 4.045082 -1.186176 -0.460132 13.464252 -23.042262 -18.922140 156.853166 -54.426945 -143.627970 21.684782 -8.568947 -43.999798 -9.497657 -2.015678 -2.160588 5.503655 -17.984989 -1.518633 -145.788061 -38.519236 140.800872 -9.969704 -16.960283 33.136652 4.122839 -29.044017 -7.219962 -4.430177 67.796972 -3.687650 4.919166 13.241497 9.463726 -0.020298 -9.335651 0.007838 -10.437840 -34.522927 -1.432748 27.298435 62.896134 23.302950 -8.996420 30.556885 2.961432 0.519346 -18.027044 -3.292580
-10.171724 58.200346 43.960595 -173.120627 -42.270567 -6.071866 -0.550174 27.592239 2.577840 -0.100183 5.043385 0.426971 -0.141033 7.946505 0.670449 -0.153569 22.701449 1.935186 -2.457089 14.397190 -0.382513 -4.504998 -9.079154 0.229900 4.036011 -1.201588 -0.450358 13.496639 -23.032864 -18.954135 157.083565 -54.445529 -143.731210 21.744518 -8.660578 -44.005239 -9.494248 -2.016782 -2.152771 5.486212 -18.000924 -1.515872 -145.788779 -38.540942 140.757392 -9.992199 -16.969953 33.180945 4.170022 -29.041315 -7.215056 -4.495255 67.810878 -3.717101 4.914649 13.253239 9.468243 -0.020416 -9.343049 0.011535 -10.442717 -34.549464 -1.426040 27.333253 62.903512 23.345213 -8.994996 30.660009 3.058520 0.519097 -18.091355 -3.384778
